{
    "asset" : {
        "generator" : "Khronos glTF Blender I/O v0.9.36",
        "version" : "2.0"
    },
    "scene" : 0,
    "scenes" : [
        {
            "name" : "Scene",
            "nodes" : [
                0
            ]
        }
    ],
    "nodes" : [
        {
            "mesh" : 0,
            "name" : "1539KP02.001",
            "scale" : [
                100.1122817993164,
                99.9625244140625,
                100.05265808105469
            ]
        }
    ],
    "materials" : [
        {
            "doubleSided" : true,
            "name" : "Steel_grey",
            "normalTexture" : {
                "index" : 0,
                "scale" : 0.4300000071525574,
                "texCoord" : 0
            },
            "pbrMetallicRoughness" : {
                "baseColorFactor" : [
                    0.04102785140275955,
                    0.04102785140275955,
                    0.04102785140275955,
                    1
                ],
                "metallicFactor" : 0.5,
                "roughnessFactor" : 0.3499999940395355
            }
        },
        {
            "doubleSided" : true,
            "name" : "Steel_darkGrey",
            "pbrMetallicRoughness" : {
                "baseColorFactor" : [
                    0.02746710367500782,
                    0.02746710367500782,
                    0.02746710367500782,
                    1
                ],
                "metallicFactor" : 0.5,
                "roughnessFactor" : 0.3499999940395355
            }
        },
        {
            "doubleSided" : true,
            "name" : "Gold",
            "pbrMetallicRoughness" : {
                "baseColorFactor" : [
                    0.3466476500034332,
                    0.24351362884044647,
                    0.1463545560836792,
                    1
                ],
                "metallicFactor" : 0.8999999761581421,
                "roughnessFactor" : 0.15000000596046448
            }
        },
        {
            "doubleSided" : true,
            "name" : "Belt",
            "normalTexture" : {
                "index" : 1,
                "scale" : 0.4300000071525574,
                "texCoord" : 0
            },
            "pbrMetallicRoughness" : {
                "baseColorFactor" : [
                    0.0002363100938964635,
                    0.0002363100938964635,
                    0.0002363100938964635,
                    1
                ],
                "metallicFactor" : 0.30000001192092896,
                "roughnessFactor" : 0.4272727370262146
            }
        },
        {
            "doubleSided" : true,
            "name" : "Lock",
            "normalTexture" : {
                "index" : 2,
                "scale" : 0.4300000071525574,
                "texCoord" : 0
            },
            "pbrMetallicRoughness" : {
                "baseColorFactor" : [
                    0.5056076049804688,
                    0.5056076049804688,
                    0.5056076049804688,
                    1
                ],
                "metallicFactor" : 0.800000011920929,
                "roughnessFactor" : 0.20000000298023224
            }
        },
        {
            "doubleSided" : true,
            "name" : "Dail",
            "pbrMetallicRoughness" : {
                "baseColorTexture" : {
                    "index" : 3,
                    "texCoord" : 0
                },
                "metallicFactor" : 0.30000001192092896,
                "roughnessFactor" : 0.15000000596046448
            }
        },
        {
            "alphaMode" : "BLEND",
            "name" : "pokes",
            "pbrMetallicRoughness" : {
                "baseColorTexture" : {
                    "index" : 4,
                    "texCoord" : 0
                },
                "metallicFactor" : 0.800000011920929,
                "roughnessFactor" : 0.30000001192092896
            }
        }
    ],
    "meshes" : [
        {
            "name" : "Plane.000",
            "primitives" : [
                {
                    "attributes" : {
                        "POSITION" : 0,
                        "NORMAL" : 1,
                        "TEXCOORD_0" : 2,
                        "TEXCOORD_1" : 3
                    },
                    "indices" : 4,
                    "material" : 0
                },
                {
                    "attributes" : {
                        "POSITION" : 5,
                        "NORMAL" : 6,
                        "TEXCOORD_0" : 7,
                        "TEXCOORD_1" : 8
                    },
                    "indices" : 9,
                    "material" : 1
                },
                {
                    "attributes" : {
                        "POSITION" : 10,
                        "NORMAL" : 11,
                        "TEXCOORD_0" : 12,
                        "TEXCOORD_1" : 13
                    },
                    "indices" : 14,
                    "material" : 2
                },
                {
                    "attributes" : {
                        "POSITION" : 15,
                        "NORMAL" : 16,
                        "TEXCOORD_0" : 17,
                        "TEXCOORD_1" : 18
                    },
                    "indices" : 19,
                    "material" : 3
                },
                {
                    "attributes" : {
                        "POSITION" : 20,
                        "NORMAL" : 21,
                        "TEXCOORD_0" : 22,
                        "TEXCOORD_1" : 23
                    },
                    "indices" : 24,
                    "material" : 4
                },
                {
                    "attributes" : {
                        "POSITION" : 25,
                        "NORMAL" : 26,
                        "TEXCOORD_0" : 27,
                        "TEXCOORD_1" : 28
                    },
                    "indices" : 29,
                    "material" : 5
                },
                {
                    "attributes" : {
                        "POSITION" : 30,
                        "NORMAL" : 31,
                        "TEXCOORD_0" : 32,
                        "TEXCOORD_1" : 33
                    },
                    "indices" : 34,
                    "material" : 6
                }
            ]
        }
    ],
    "textures" : [
        {
            "source" : 0
        },
        {
            "source" : 0
        },
        {
            "source" : 0
        },
        {
            "source" : 1
        },
        {
            "source" : 2
        }
    ],
    "images" : [
        {
            "bufferView" : 5,
            "mimeType" : "image/png",
            "name" : "NormalMap"
        },
        {
            "bufferView" : 31,
            "mimeType" : "image/png",
            "name" : "Dail_texture"
        },
        {
            "bufferView" : 37,
            "mimeType" : "image/png",
            "name" : "Pokes"
        }
    ],
    "accessors" : [
        {
            "bufferView" : 0,
            "componentType" : 5126,
            "count" : 7753,
            "max" : [
                0.024052942171692848,
                0.024229560047388077,
                0.010678481310606003
            ],
            "min" : [
                -0.016401635482907295,
                -0.016916431486606598,
                -0.040232062339782715
            ],
            "type" : "VEC3"
        },
        {
            "bufferView" : 1,
            "componentType" : 5126,
            "count" : 7753,
            "type" : "VEC3"
        },
        {
            "bufferView" : 2,
            "componentType" : 5126,
            "count" : 7753,
            "type" : "VEC2"
        },
        {
            "bufferView" : 3,
            "componentType" : 5126,
            "count" : 7753,
            "type" : "VEC2"
        },
        {
            "bufferView" : 4,
            "componentType" : 5123,
            "count" : 27876,
            "type" : "SCALAR"
        },
        {
            "bufferView" : 6,
            "componentType" : 5126,
            "count" : 1449,
            "max" : [
                0.015028963796794415,
                0.016001621261239052,
                0.010014115832746029
            ],
            "min" : [
                -0.01623041369020939,
                -0.01532513927668333,
                0.006866733077913523
            ],
            "type" : "VEC3"
        },
        {
            "bufferView" : 7,
            "componentType" : 5126,
            "count" : 1449,
            "type" : "VEC3"
        },
        {
            "bufferView" : 8,
            "componentType" : 5126,
            "count" : 1449,
            "type" : "VEC2"
        },
        {
            "bufferView" : 9,
            "componentType" : 5126,
            "count" : 1449,
            "type" : "VEC2"
        },
        {
            "bufferView" : 10,
            "componentType" : 5123,
            "count" : 5040,
            "type" : "SCALAR"
        },
        {
            "bufferView" : 11,
            "componentType" : 5126,
            "count" : 2176,
            "max" : [
                0.012145712040364742,
                0.01934780180454254,
                0.008623912930488586
            ],
            "min" : [
                -0.012240670621395111,
                -0.017480948939919472,
                0.0013351325178518891
            ],
            "type" : "VEC3"
        },
        {
            "bufferView" : 12,
            "componentType" : 5126,
            "count" : 2176,
            "type" : "VEC3"
        },
        {
            "bufferView" : 13,
            "componentType" : 5126,
            "count" : 2176,
            "type" : "VEC2"
        },
        {
            "bufferView" : 14,
            "componentType" : 5126,
            "count" : 2176,
            "type" : "VEC2"
        },
        {
            "bufferView" : 15,
            "componentType" : 5123,
            "count" : 9120,
            "type" : "SCALAR"
        },
        {
            "bufferView" : 16,
            "componentType" : 5126,
            "count" : 4897,
            "max" : [
                0.010764217004179955,
                0.02995210699737072,
                0.007558091543614864
            ],
            "min" : [
                -0.010859174653887749,
                -0.02886993996798992,
                -0.04499337822198868
            ],
            "type" : "VEC3"
        },
        {
            "bufferView" : 17,
            "componentType" : 5126,
            "count" : 4897,
            "type" : "VEC3"
        },
        {
            "bufferView" : 18,
            "componentType" : 5126,
            "count" : 4897,
            "type" : "VEC2"
        },
        {
            "bufferView" : 19,
            "componentType" : 5126,
            "count" : 4897,
            "type" : "VEC2"
        },
        {
            "bufferView" : 20,
            "componentType" : 5123,
            "count" : 22464,
            "type" : "SCALAR"
        },
        {
            "bufferView" : 21,
            "componentType" : 5126,
            "count" : 790,
            "max" : [
                0.008817959576845169,
                0.016784492880105972,
                -0.03772696107625961
            ],
            "min" : [
                -0.010001517832279205,
                0.0038396918680518866,
                -0.04559188708662987
            ],
            "type" : "VEC3"
        },
        {
            "bufferView" : 22,
            "componentType" : 5126,
            "count" : 790,
            "type" : "VEC3"
        },
        {
            "bufferView" : 23,
            "componentType" : 5126,
            "count" : 790,
            "type" : "VEC2"
        },
        {
            "bufferView" : 24,
            "componentType" : 5126,
            "count" : 790,
            "type" : "VEC2"
        },
        {
            "bufferView" : 25,
            "componentType" : 5123,
            "count" : 1968,
            "type" : "SCALAR"
        },
        {
            "bufferView" : 26,
            "componentType" : 5126,
            "count" : 132,
            "max" : [
                0.01223248615860939,
                0.01317305862903595,
                0.00831788219511509
            ],
            "min" : [
                -0.013462050817906857,
                -0.01249657478183508,
                0.008317872881889343
            ],
            "type" : "VEC3"
        },
        {
            "bufferView" : 27,
            "componentType" : 5126,
            "count" : 132,
            "type" : "VEC3"
        },
        {
            "bufferView" : 28,
            "componentType" : 5126,
            "count" : 132,
            "type" : "VEC2"
        },
        {
            "bufferView" : 29,
            "componentType" : 5126,
            "count" : 132,
            "type" : "VEC2"
        },
        {
            "bufferView" : 30,
            "componentType" : 5123,
            "count" : 204,
            "type" : "SCALAR"
        },
        {
            "bufferView" : 32,
            "componentType" : 5126,
            "count" : 144,
            "max" : [
                0.0003852263034787029,
                0.009383567608892918,
                0.008617028594017029
            ],
            "min" : [
                -0.0016802167519927025,
                -0.0031587067060172558,
                0.00861702673137188
            ],
            "type" : "VEC3"
        },
        {
            "bufferView" : 33,
            "componentType" : 5126,
            "count" : 144,
            "type" : "VEC3"
        },
        {
            "bufferView" : 34,
            "componentType" : 5126,
            "count" : 144,
            "type" : "VEC2"
        },
        {
            "bufferView" : 35,
            "componentType" : 5126,
            "count" : 144,
            "type" : "VEC2"
        },
        {
            "bufferView" : 36,
            "componentType" : 5123,
            "count" : 216,
            "type" : "SCALAR"
        }
    ],
    "bufferViews" : [
        {
            "buffer" : 0,
            "byteLength" : 93036,
            "byteOffset" : 0
        },
        {
            "buffer" : 0,
            "byteLength" : 93036,
            "byteOffset" : 93036
        },
        {
            "buffer" : 0,
            "byteLength" : 62024,
            "byteOffset" : 186072
        },
        {
            "buffer" : 0,
            "byteLength" : 62024,
            "byteOffset" : 248096
        },
        {
            "buffer" : 0,
            "byteLength" : 55752,
            "byteOffset" : 310120
        },
        {
            "buffer" : 0,
            "byteLength" : 81886,
            "byteOffset" : 365872
        },
        {
            "buffer" : 0,
            "byteLength" : 17388,
            "byteOffset" : 447760
        },
        {
            "buffer" : 0,
            "byteLength" : 17388,
            "byteOffset" : 465148
        },
        {
            "buffer" : 0,
            "byteLength" : 11592,
            "byteOffset" : 482536
        },
        {
            "buffer" : 0,
            "byteLength" : 11592,
            "byteOffset" : 494128
        },
        {
            "buffer" : 0,
            "byteLength" : 10080,
            "byteOffset" : 505720
        },
        {
            "buffer" : 0,
            "byteLength" : 26112,
            "byteOffset" : 515800
        },
        {
            "buffer" : 0,
            "byteLength" : 26112,
            "byteOffset" : 541912
        },
        {
            "buffer" : 0,
            "byteLength" : 17408,
            "byteOffset" : 568024
        },
        {
            "buffer" : 0,
            "byteLength" : 17408,
            "byteOffset" : 585432
        },
        {
            "buffer" : 0,
            "byteLength" : 18240,
            "byteOffset" : 602840
        },
        {
            "buffer" : 0,
            "byteLength" : 58764,
            "byteOffset" : 621080
        },
        {
            "buffer" : 0,
            "byteLength" : 58764,
            "byteOffset" : 679844
        },
        {
            "buffer" : 0,
            "byteLength" : 39176,
            "byteOffset" : 738608
        },
        {
            "buffer" : 0,
            "byteLength" : 39176,
            "byteOffset" : 777784
        },
        {
            "buffer" : 0,
            "byteLength" : 44928,
            "byteOffset" : 816960
        },
        {
            "buffer" : 0,
            "byteLength" : 9480,
            "byteOffset" : 861888
        },
        {
            "buffer" : 0,
            "byteLength" : 9480,
            "byteOffset" : 871368
        },
        {
            "buffer" : 0,
            "byteLength" : 6320,
            "byteOffset" : 880848
        },
        {
            "buffer" : 0,
            "byteLength" : 6320,
            "byteOffset" : 887168
        },
        {
            "buffer" : 0,
            "byteLength" : 3936,
            "byteOffset" : 893488
        },
        {
            "buffer" : 0,
            "byteLength" : 1584,
            "byteOffset" : 897424
        },
        {
            "buffer" : 0,
            "byteLength" : 1584,
            "byteOffset" : 899008
        },
        {
            "buffer" : 0,
            "byteLength" : 1056,
            "byteOffset" : 900592
        },
        {
            "buffer" : 0,
            "byteLength" : 1056,
            "byteOffset" : 901648
        },
        {
            "buffer" : 0,
            "byteLength" : 408,
            "byteOffset" : 902704
        },
        {
            "buffer" : 0,
            "byteLength" : 68984,
            "byteOffset" : 903112
        },
        {
            "buffer" : 0,
            "byteLength" : 1728,
            "byteOffset" : 972096
        },
        {
            "buffer" : 0,
            "byteLength" : 1728,
            "byteOffset" : 973824
        },
        {
            "buffer" : 0,
            "byteLength" : 1152,
            "byteOffset" : 975552
        },
        {
            "buffer" : 0,
            "byteLength" : 1152,
            "byteOffset" : 976704
        },
        {
            "buffer" : 0,
            "byteLength" : 432,
            "byteOffset" : 977856
        },
        {
            "buffer" : 0,
            "byteLength" : 30586,
            "byteOffset" : 978288
        }
    ],
    "buffers" : [
        {
            "byteLength" : 1008876,
            "uri" : "data:application/octet-stream;base64,"
        }
    ]
}
