{"accessors" : [{"bufferView" : 0, "byteOffset" : 0, "componentType" : 5123, "count" : 6144, "type" : "SCALAR", "max" : [6143], "min" : [0]}, {"bufferView" : 1, "byteOffset" : 0, "componentType" : 5126, "count" : 6144, "type" : "VEC3", "max" : [0.054400112479925156, 0.160825714468956, 0.05440003052353859], "min" : [-0.05440014973282814, -0.20417249202728271, -0.05440003052353859]}, {"bufferView" : 1, "byteOffset" : 12, "componentType" : 5126, "count" : 6144, "type" : "VEC3", "max" : [1.0000041723251343, 1.0000044107437134, 1.0000041723251343], "min" : [-1.0000041723251343, -1.0000044107437134, -1.0000041723251343]}, {"bufferView" : 1, "byteOffset" : 24, "componentType" : 5126, "count" : 6144, "type" : "VEC2", "max" : [0.9510869979858398, 0.956643283367157], "min" : [0.026502937078475952, 0.008514344692230225]}, {"bufferView" : 0, "byteOffset" : 12288, "componentType" : 5123, "count" : 6, "type" : "SCALAR", "max" : [5], "min" : [0]}, {"bufferView" : 6, "byteOffset" : 0, "componentType" : 5126, "count" : 6, "type" : "VEC3", "max" : [1, 0, 1], "min" : [-1, 0, -1]}, {"bufferView" : 6, "byteOffset" : 12, "componentType" : 5126, "count" : 6, "type" : "VEC3", "max" : [0, 1.0000044107437134, -0], "min" : [0, 1.0000044107437134, -0]}, {"bufferView" : 6, "byteOffset" : 24, "componentType" : 5126, "count" : 6, "type" : "VEC2", "max" : [1, 1], "min" : [0, 0]}], "asset" : {"generator" : "Aspose.3D 20.9.1", "version" : "2.0"}, "buffers" : [{"uri" : "buffer.bin", "byteLength" : 845688}], "bufferViews" : [{"buffer" : 0, "byteOffset" : 0, "byteLength" : 12300, "target" : 34963}, {"buffer" : 0, "byteOffset" : 12304, "byteLength" : 196608, "byteStride" : 32, "target" : 34962}, {"buffer" : 0, "byteOffset" : 208916, "byteLength" : 267349}, {"buffer" : 0, "byteOffset" : 476268, "byteLength" : 20814}, {"buffer" : 0, "byteOffset" : 497084, "byteLength" : 327591}, {"buffer" : 0, "byteOffset" : 824676, "byteLength" : 20814}, {"buffer" : 0, "byteOffset" : 845492, "byteLength" : 192, "byteStride" : 32, "target" : 34962}], "images" : [{"mimeType" : "image/png", "bufferView" : 2}, {"mimeType" : "image/png", "bufferView" : 3}, {"mimeType" : "image/png", "bufferView" : 4}, {"mimeType" : "image/png", "bufferView" : 5}], "materials" : [{"pbrMetallicRoughness" : {"baseColorFactor" : [1, 1, 1, 1], "baseColorTexture" : {"index" : 0, "texCoord" : 0}, "metallicFactor" : 1, "roughnessFactor" : 1, "metallicRoughnessTexture" : {"index" : 1, "texCoord" : 0}}, "emissiveFactor" : [0, 0, 0], "alphaMode" : "OPAQUE", "doubleSided" : true}, {"pbrMetallicRoughness" : {"baseColorFactor" : [1, 1, 1, 1], "baseColorTexture" : {"index" : 2, "texCoord" : 0}, "metallicFactor" : 1, "roughnessFactor" : 1, "metallicRoughnessTexture" : {"index" : 3, "texCoord" : 0}}, "emissiveFactor" : [0, 0, 0], "alphaMode" : "OPAQUE", "doubleSided" : true}], "meshes" : [{"primitives" : [{"attributes" : {"POSITION" : 1, "NORMAL" : 2, "TEXCOORD_0" : 3}, "indices" : 0, "material" : 0, "mode" : 4}]}, {"primitives" : [{"attributes" : {"POSITION" : 1, "NORMAL" : 2, "TEXCOORD_0" : 3}, "indices" : 0, "material" : 1, "mode" : 4}]}, {"primitives" : [{"attributes" : {"POSITION" : 5, "NORMAL" : 6, "TEXCOORD_0" : 7}, "indices" : 4, "mode" : 4}]}], "nodes" : [{"matrix" : [1.23729276119057, 0, -0.4564369055628617, 0, 0, 1.5070277452468872, 0, 0, 0.45643781324809646, 0, 1.2372952217110862, 0, -0.22243934869766235, 0.3169287145137787, 0.06859253346920013, 1], "mesh" : 0, "name" : "battery.001"}, {"matrix" : [-0.36790506802840883, 1.1028622524255398, 0.6225500470810136, 0, -1.2974083100739549, 3.0024753419948934E-07, -0.7667229773200261, 0, -0.5610989560606046, -0.723135407804723, 0.9494619766015397, 0, 0.05097246170043945, 0.08254870772361755, -0.19699586927890778, 1], "mesh" : 1, "name" : "battery.002"}, {"matrix" : [3.5806758403778076, 0, 0, 0, 0, 3.5806758403778076, 0, 0, 0, 0, 3.5806758403778076, 0, 0, 0, 0, 1], "mesh" : 2, "name" : "Plane"}], "samplers" : [{"magFilter" : 9729, "minFilter" : 9729, "wrapS" : 10497, "wrapT" : 10497}, {"magFilter" : 9729, "minFilter" : 9729, "wrapS" : 10497, "wrapT" : 10497}, {"magFilter" : 9729, "minFilter" : 9729, "wrapS" : 10497, "wrapT" : 10497}, {"magFilter" : 9729, "minFilter" : 9729, "wrapS" : 10497, "wrapT" : 10497}], "scene" : 0, "scenes" : [{"nodes" : [0, 1, 2]}], "textures" : [{"sampler" : 0, "source" : 0}, {"sampler" : 1, "source" : 1}, {"sampler" : 2, "source" : 2}, {"sampler" : 3, "source" : 3}]}