{
    "asset" : {
        "generator" : "Khronos glTF Blender I/O v1.1.45",
        "version" : "2.0"
    },
    "scene" : 0,
    "scenes" : [
        {
            "name" : "Scene",
            "nodes" : [
                0
            ]
        }
    ],
    "nodes" : [
        {
            "mesh" : 0,
            "name" : "NG3039SP01C_100x",
            "scale" : [
                100,
                100,
                100
            ]
        }
    ],
    "materials" : [
        {
            "doubleSided" : true,
            "emissiveFactor" : [
                0,
                0,
                0
            ],
            "name" : "Matte_metal",
            "pbrMetallicRoughness" : {
                "baseColorFactor" : [
                    0.3016512393951416,
                    0.3016512393951416,
                    0.3016512393951416,
                    1
                ],
                "metallicFactor" : 0.8500000238418579,
                "roughnessFactor" : 0.4000000059604645
            }
        },
        {
            "doubleSided" : true,
            "emissiveFactor" : [
                0,
                0,
                0
            ],
            "name" : "Basic_Shiny_Metal",
            "pbrMetallicRoughness" : {
                "baseColorFactor" : [
                    0.3016512393951416,
                    0.3016512393951416,
                    0.3016512393951416,
                    1
                ],
                "metallicFactor" : 0.8500000238418579,
                "roughnessFactor" : 0.10000000149011612
            }
        },
        {
            "doubleSided" : true,
            "emissiveFactor" : [
                0,
                0,
                0
            ],
            "name" : "Texture",
            "pbrMetallicRoughness" : {
                "baseColorTexture" : {
                    "index" : 0,
                    "texCoord" : 0
                },
                "metallicFactor" : 0.5,
                "roughnessFactor" : 0.5
            }
        },
        {
            "doubleSided" : true,
            "emissiveFactor" : [
                0,
                0,
                0
            ],
            "name" : "Nobe",
            "pbrMetallicRoughness" : {
                "baseColorFactor" : [
                    0.20068085193634033,
                    0.20068085193634033,
                    0.20068085193634033,
                    1
                ],
                "metallicFactor" : 0.8500000238418579,
                "roughnessFactor" : 0.30000001192092896
            }
        },
        {
            "doubleSided" : true,
            "emissiveFactor" : [
                0,
                0,
                0
            ],
            "name" : "Black Matt Plastic",
            "pbrMetallicRoughness" : {
                "baseColorFactor" : [
                    0,
                    0,
                    0,
                    1
                ],
                "metallicFactor" : 0.20000000298023224,
                "roughnessFactor" : 0.800000011920929
            }
        }
    ],
    "meshes" : [
        {
            "name" : "Circle",
            "primitives" : [
                {
                    "attributes" : {
                        "POSITION" : 0,
                        "NORMAL" : 1,
                        "TEXCOORD_0" : 2,
                        "TEXCOORD_1" : 3
                    },
                    "indices" : 4,
                    "material" : 0
                },
                {
                    "attributes" : {
                        "POSITION" : 5,
                        "NORMAL" : 6,
                        "TEXCOORD_0" : 7,
                        "TEXCOORD_1" : 8
                    },
                    "indices" : 9,
                    "material" : 1
                },
                {
                    "attributes" : {
                        "POSITION" : 10,
                        "NORMAL" : 11,
                        "TEXCOORD_0" : 12,
                        "TEXCOORD_1" : 13
                    },
                    "indices" : 14,
                    "material" : 2
                },
                {
                    "attributes" : {
                        "POSITION" : 15,
                        "NORMAL" : 16,
                        "TEXCOORD_0" : 17,
                        "TEXCOORD_1" : 18
                    },
                    "indices" : 19,
                    "material" : 3
                },
                {
                    "attributes" : {
                        "POSITION" : 20,
                        "NORMAL" : 21,
                        "TEXCOORD_0" : 22,
                        "TEXCOORD_1" : 23
                    },
                    "indices" : 24,
                    "material" : 4
                }
            ]
        }
    ],
    "textures" : [
        {
            "source" : 0
        }
    ],
    "images" : [
        {
            "bufferView" : 15,
            "mimeType" : "image/png",
            "name" : "Dials"
        }
    ],
    "accessors" : [
        {
            "bufferView" : 0,
            "componentType" : 5126,
            "count" : 4911,
            "max" : [
                0.02354949712753296,
                0.02451087348163128,
                0.0165023785084486
            ],
            "min" : [
                -0.021280644461512566,
                -0.02451087348163128,
                -0.06653307378292084
            ],
            "type" : "VEC3"
        },
        {
            "bufferView" : 1,
            "componentType" : 5126,
            "count" : 4911,
            "type" : "VEC3"
        },
        {
            "bufferView" : 2,
            "componentType" : 5126,
            "count" : 4911,
            "type" : "VEC2"
        },
        {
            "bufferView" : 3,
            "componentType" : 5126,
            "count" : 4911,
            "type" : "VEC2"
        },
        {
            "bufferView" : 4,
            "componentType" : 5123,
            "count" : 28545,
            "type" : "SCALAR"
        },
        {
            "bufferView" : 5,
            "componentType" : 5126,
            "count" : 960,
            "max" : [
                0.019997436553239822,
                0.019997423514723778,
                0.01663297601044178
            ],
            "min" : [
                -0.019997436553239822,
                -0.019997423514723778,
                0.012632876634597778
            ],
            "type" : "VEC3"
        },
        {
            "bufferView" : 6,
            "componentType" : 5126,
            "count" : 960,
            "type" : "VEC3"
        },
        {
            "bufferView" : 7,
            "componentType" : 5126,
            "count" : 960,
            "type" : "VEC2"
        },
        {
            "bufferView" : 8,
            "componentType" : 5126,
            "count" : 960,
            "type" : "VEC2"
        },
        {
            "bufferView" : 9,
            "componentType" : 5123,
            "count" : 4992,
            "type" : "SCALAR"
        },
        {
            "bufferView" : 10,
            "componentType" : 5126,
            "count" : 32,
            "max" : [
                0.016428451985120773,
                0.016428500413894653,
                0.012489493936300278
            ],
            "min" : [
                -0.016428504139184952,
                -0.016428478062152863,
                0.012489493004977703
            ],
            "type" : "VEC3"
        },
        {
            "bufferView" : 11,
            "componentType" : 5126,
            "count" : 32,
            "type" : "VEC3"
        },
        {
            "bufferView" : 12,
            "componentType" : 5126,
            "count" : 32,
            "type" : "VEC2"
        },
        {
            "bufferView" : 13,
            "componentType" : 5126,
            "count" : 32,
            "type" : "VEC2"
        },
        {
            "bufferView" : 14,
            "componentType" : 5123,
            "count" : 90,
            "type" : "SCALAR"
        },
        {
            "bufferView" : 16,
            "componentType" : 5126,
            "count" : 512,
            "max" : [
                0.024295536801218987,
                0.002498205052688718,
                0.01540830172598362
            ],
            "min" : [
                0.020939569920301437,
                -0.002498205052688718,
                0.010411892086267471
            ],
            "type" : "VEC3"
        },
        {
            "bufferView" : 17,
            "componentType" : 5126,
            "count" : 512,
            "type" : "VEC3"
        },
        {
            "bufferView" : 18,
            "componentType" : 5126,
            "count" : 512,
            "type" : "VEC2"
        },
        {
            "bufferView" : 19,
            "componentType" : 5126,
            "count" : 512,
            "type" : "VEC2"
        },
        {
            "bufferView" : 20,
            "componentType" : 5123,
            "count" : 2970,
            "type" : "SCALAR"
        },
        {
            "bufferView" : 21,
            "componentType" : 5126,
            "count" : 13655,
            "max" : [
                0.014187723398208618,
                0.04057314246892929,
                0.011454129591584206
            ],
            "min" : [
                -0.01418303046375513,
                -0.04055424779653549,
                -0.06282588094472885
            ],
            "type" : "VEC3"
        },
        {
            "bufferView" : 22,
            "componentType" : 5126,
            "count" : 13655,
            "type" : "VEC3"
        },
        {
            "bufferView" : 23,
            "componentType" : 5126,
            "count" : 13655,
            "type" : "VEC2"
        },
        {
            "bufferView" : 24,
            "componentType" : 5126,
            "count" : 13655,
            "type" : "VEC2"
        },
        {
            "bufferView" : 25,
            "componentType" : 5123,
            "count" : 81891,
            "type" : "SCALAR"
        }
    ],
    "bufferViews" : [
        {
            "buffer" : 0,
            "byteLength" : 58932,
            "byteOffset" : 0
        },
        {
            "buffer" : 0,
            "byteLength" : 58932,
            "byteOffset" : 58932
        },
        {
            "buffer" : 0,
            "byteLength" : 39288,
            "byteOffset" : 117864
        },
        {
            "buffer" : 0,
            "byteLength" : 39288,
            "byteOffset" : 157152
        },
        {
            "buffer" : 0,
            "byteLength" : 57090,
            "byteOffset" : 196440
        },
        {
            "buffer" : 0,
            "byteLength" : 11520,
            "byteOffset" : 253532
        },
        {
            "buffer" : 0,
            "byteLength" : 11520,
            "byteOffset" : 265052
        },
        {
            "buffer" : 0,
            "byteLength" : 7680,
            "byteOffset" : 276572
        },
        {
            "buffer" : 0,
            "byteLength" : 7680,
            "byteOffset" : 284252
        },
        {
            "buffer" : 0,
            "byteLength" : 9984,
            "byteOffset" : 291932
        },
        {
            "buffer" : 0,
            "byteLength" : 384,
            "byteOffset" : 301916
        },
        {
            "buffer" : 0,
            "byteLength" : 384,
            "byteOffset" : 302300
        },
        {
            "buffer" : 0,
            "byteLength" : 256,
            "byteOffset" : 302684
        },
        {
            "buffer" : 0,
            "byteLength" : 256,
            "byteOffset" : 302940
        },
        {
            "buffer" : 0,
            "byteLength" : 180,
            "byteOffset" : 303196
        },
        {
            "buffer" : 0,
            "byteLength" : 413047,
            "byteOffset" : 303376
        },
        {
            "buffer" : 0,
            "byteLength" : 6144,
            "byteOffset" : 716424
        },
        {
            "buffer" : 0,
            "byteLength" : 6144,
            "byteOffset" : 722568
        },
        {
            "buffer" : 0,
            "byteLength" : 4096,
            "byteOffset" : 728712
        },
        {
            "buffer" : 0,
            "byteLength" : 4096,
            "byteOffset" : 732808
        },
        {
            "buffer" : 0,
            "byteLength" : 5940,
            "byteOffset" : 736904
        },
        {
            "buffer" : 0,
            "byteLength" : 163860,
            "byteOffset" : 742844
        },
        {
            "buffer" : 0,
            "byteLength" : 163860,
            "byteOffset" : 906704
        },
        {
            "buffer" : 0,
            "byteLength" : 109240,
            "byteOffset" : 1070564
        },
        {
            "buffer" : 0,
            "byteLength" : 109240,
            "byteOffset" : 1179804
        },
        {
            "buffer" : 0,
            "byteLength" : 163782,
            "byteOffset" : 1289044
        }
    ],
    "buffers" : [
        {
            "byteLength" : 1452828,
            "uri" : "data:application/octet-stream;base64,"
        }
    ]
}
