{
    "asset" : {
        "generator" : "Khronos glTF Blender I/O v1.1.45",
        "version" : "2.0"
    },
    "extensionsUsed" : [
        "KHR_texture_transform"
    ],
    "extensionsRequired" : [
        "KHR_texture_transform"
    ],
    "scene" : 0,
    "scenes" : [
        {
            "name" : "Scene",
            "nodes" : [
                0
            ]
        }
    ],
    "nodes" : [
        {
            "mesh" : 0,
            "name" : "FZ 32_235_H_100x",
            "scale" : [
                100,
                100,
                100
            ]
        }
    ],
    "materials" : [
        {
            "doubleSided" : true,
            "emissiveFactor" : [
                0,
                0,
                0
            ],
            "name" : "Metal",
            "pbrMetallicRoughness" : {
                "baseColorFactor" : [
                    0.6375970244407654,
                    0.5209956765174866,
                    0.38642948865890503,
                    1
                ],
                "metallicFactor" : 0.8500000238418579,
                "roughnessFactor" : 0.10000000149011612
            }
        },
        {
            "doubleSided" : true,
            "emissiveFactor" : [
                0,
                0,
                0
            ],
            "name" : "Dark Grey Metal Matt",
            "pbrMetallicRoughness" : {
                "baseColorFactor" : [
                    0.018801162019371986,
                    0.018801162019371986,
                    0.018801162019371986,
                    1
                ],
                "metallicFactor" : 0.8500000238418579,
                "roughnessFactor" : 0.5
            }
        },
        {
            "doubleSided" : true,
            "emissiveFactor" : [
                0,
                0,
                0
            ],
            "name" : "Material",
            "pbrMetallicRoughness" : {
                "baseColorTexture" : {
                    "index" : 0,
                    "texCoord" : 0
                },
                "metallicFactor" : 0.5,
                "roughnessFactor" : 0.5
            }
        },
        {
            "doubleSided" : true,
            "emissiveFactor" : [
                0,
                0,
                0
            ],
            "name" : "Texture",
            "normalTexture" : {
                "extensions" : {
                    "KHR_texture_transform" : {
                        "offset" : [
                            0,
                            -99
                        ],
                        "scale" : [
                            100,
                            100
                        ]
                    }
                },
                "index" : 1,
                "scale" : 0.5,
                "texCoord" : 0
            },
            "pbrMetallicRoughness" : {
                "baseColorTexture" : {
                    "extensions" : {
                        "KHR_texture_transform" : {
                            "offset" : [
                                0,
                                -99
                            ],
                            "scale" : [
                                100,
                                100
                            ]
                        }
                    },
                    "index" : 2,
                    "texCoord" : 0
                },
                "metallicFactor" : 0,
                "roughnessFactor" : 0.8500000238418579
            }
        },
        {
            "doubleSided" : true,
            "emissiveFactor" : [
                0,
                0,
                0
            ],
            "name" : "Edge",
            "pbrMetallicRoughness" : {
                "baseColorFactor" : [
                    0.5070681571960449,
                    0.13812130689620972,
                    0.023332996293902397,
                    1
                ],
                "metallicFactor" : 0.5,
                "roughnessFactor" : 0.15000000596046448
            }
        }
    ],
    "meshes" : [
        {
            "name" : "Circle.002",
            "primitives" : [
                {
                    "attributes" : {
                        "POSITION" : 0,
                        "NORMAL" : 1,
                        "TEXCOORD_0" : 2,
                        "TEXCOORD_1" : 3
                    },
                    "indices" : 4,
                    "material" : 0
                },
                {
                    "attributes" : {
                        "POSITION" : 5,
                        "NORMAL" : 6,
                        "TEXCOORD_0" : 7,
                        "TEXCOORD_1" : 8
                    },
                    "indices" : 9,
                    "material" : 1
                },
                {
                    "attributes" : {
                        "POSITION" : 10,
                        "NORMAL" : 11,
                        "TEXCOORD_0" : 12,
                        "TEXCOORD_1" : 13
                    },
                    "indices" : 14,
                    "material" : 2
                },
                {
                    "attributes" : {
                        "POSITION" : 15,
                        "NORMAL" : 16,
                        "TEXCOORD_0" : 17,
                        "TEXCOORD_1" : 18
                    },
                    "indices" : 19,
                    "material" : 3
                },
                {
                    "attributes" : {
                        "POSITION" : 20,
                        "NORMAL" : 21,
                        "TEXCOORD_0" : 22,
                        "TEXCOORD_1" : 23
                    },
                    "indices" : 24,
                    "material" : 4
                }
            ]
        }
    ],
    "textures" : [
        {
            "source" : 0
        },
        {
            "source" : 1
        },
        {
            "source" : 2
        }
    ],
    "images" : [
        {
            "bufferView" : 15,
            "mimeType" : "image/jpeg",
            "name" : "Dial"
        },
        {
            "bufferView" : 21,
            "mimeType" : "image/jpeg",
            "name" : "Normal"
        },
        {
            "bufferView" : 22,
            "mimeType" : "image/jpeg",
            "name" : "UV"
        }
    ],
    "accessors" : [
        {
            "bufferView" : 0,
            "componentType" : 5126,
            "count" : 1363,
            "max" : [
                0.02048761583864689,
                0.02048768661916256,
                0.003851476591080427
            ],
            "min" : [
                -0.02048761583864689,
                -0.02048768661916256,
                -0.07515403628349304
            ],
            "type" : "VEC3"
        },
        {
            "bufferView" : 1,
            "componentType" : 5126,
            "count" : 1363,
            "type" : "VEC3"
        },
        {
            "bufferView" : 2,
            "componentType" : 5126,
            "count" : 1363,
            "type" : "VEC2"
        },
        {
            "bufferView" : 3,
            "componentType" : 5126,
            "count" : 1363,
            "type" : "VEC2"
        },
        {
            "bufferView" : 4,
            "componentType" : 5123,
            "count" : 5346,
            "type" : "SCALAR"
        },
        {
            "bufferView" : 5,
            "componentType" : 5126,
            "count" : 3912,
            "max" : [
                0.025925885885953903,
                0.027498675510287285,
                0.012139542028307915
            ],
            "min" : [
                -0.023106638342142105,
                -0.027498675510287285,
                0.003152347169816494
            ],
            "type" : "VEC3"
        },
        {
            "bufferView" : 6,
            "componentType" : 5126,
            "count" : 3912,
            "type" : "VEC3"
        },
        {
            "bufferView" : 7,
            "componentType" : 5126,
            "count" : 3912,
            "type" : "VEC2"
        },
        {
            "bufferView" : 8,
            "componentType" : 5126,
            "count" : 3912,
            "type" : "VEC2"
        },
        {
            "bufferView" : 9,
            "componentType" : 5123,
            "count" : 22602,
            "type" : "SCALAR"
        },
        {
            "bufferView" : 10,
            "componentType" : 5126,
            "count" : 32,
            "max" : [
                0.017963621765375137,
                0.01796368509531021,
                0.0106874480843544
            ],
            "min" : [
                -0.017963621765375137,
                -0.01796368509531021,
                0.0106874480843544
            ],
            "type" : "VEC3"
        },
        {
            "bufferView" : 11,
            "componentType" : 5126,
            "count" : 32,
            "type" : "VEC3"
        },
        {
            "bufferView" : 12,
            "componentType" : 5126,
            "count" : 32,
            "type" : "VEC2"
        },
        {
            "bufferView" : 13,
            "componentType" : 5126,
            "count" : 32,
            "type" : "VEC2"
        },
        {
            "bufferView" : 14,
            "componentType" : 5123,
            "count" : 90,
            "type" : "SCALAR"
        },
        {
            "bufferView" : 16,
            "componentType" : 5126,
            "count" : 3284,
            "max" : [
                0.012185006402432919,
                0.04633915051817894,
                0.0072731515392661095
            ],
            "min" : [
                -0.01273056399077177,
                -0.04456076771020889,
                -0.0708075687289238
            ],
            "type" : "VEC3"
        },
        {
            "bufferView" : 17,
            "componentType" : 5126,
            "count" : 3284,
            "type" : "VEC3"
        },
        {
            "bufferView" : 18,
            "componentType" : 5126,
            "count" : 3284,
            "type" : "VEC2"
        },
        {
            "bufferView" : 19,
            "componentType" : 5126,
            "count" : 3284,
            "type" : "VEC2"
        },
        {
            "bufferView" : 20,
            "componentType" : 5123,
            "count" : 12936,
            "type" : "SCALAR"
        },
        {
            "bufferView" : 23,
            "componentType" : 5126,
            "count" : 1319,
            "max" : [
                0.011821789667010307,
                0.04614643380045891,
                0.005297356750816107
            ],
            "min" : [
                -0.012053007259964943,
                -0.04288171976804733,
                -0.07029522955417633
            ],
            "type" : "VEC3"
        },
        {
            "bufferView" : 24,
            "componentType" : 5126,
            "count" : 1319,
            "type" : "VEC3"
        },
        {
            "bufferView" : 25,
            "componentType" : 5126,
            "count" : 1319,
            "type" : "VEC2"
        },
        {
            "bufferView" : 26,
            "componentType" : 5126,
            "count" : 1319,
            "type" : "VEC2"
        },
        {
            "bufferView" : 27,
            "componentType" : 5123,
            "count" : 5568,
            "type" : "SCALAR"
        }
    ],
    "bufferViews" : [
        {
            "buffer" : 0,
            "byteLength" : 16356,
            "byteOffset" : 0
        },
        {
            "buffer" : 0,
            "byteLength" : 16356,
            "byteOffset" : 16356
        },
        {
            "buffer" : 0,
            "byteLength" : 10904,
            "byteOffset" : 32712
        },
        {
            "buffer" : 0,
            "byteLength" : 10904,
            "byteOffset" : 43616
        },
        {
            "buffer" : 0,
            "byteLength" : 10692,
            "byteOffset" : 54520
        },
        {
            "buffer" : 0,
            "byteLength" : 46944,
            "byteOffset" : 65212
        },
        {
            "buffer" : 0,
            "byteLength" : 46944,
            "byteOffset" : 112156
        },
        {
            "buffer" : 0,
            "byteLength" : 31296,
            "byteOffset" : 159100
        },
        {
            "buffer" : 0,
            "byteLength" : 31296,
            "byteOffset" : 190396
        },
        {
            "buffer" : 0,
            "byteLength" : 45204,
            "byteOffset" : 221692
        },
        {
            "buffer" : 0,
            "byteLength" : 384,
            "byteOffset" : 266896
        },
        {
            "buffer" : 0,
            "byteLength" : 384,
            "byteOffset" : 267280
        },
        {
            "buffer" : 0,
            "byteLength" : 256,
            "byteOffset" : 267664
        },
        {
            "buffer" : 0,
            "byteLength" : 256,
            "byteOffset" : 267920
        },
        {
            "buffer" : 0,
            "byteLength" : 180,
            "byteOffset" : 268176
        },
        {
            "buffer" : 0,
            "byteLength" : 157287,
            "byteOffset" : 268356
        },
        {
            "buffer" : 0,
            "byteLength" : 39408,
            "byteOffset" : 425644
        },
        {
            "buffer" : 0,
            "byteLength" : 39408,
            "byteOffset" : 465052
        },
        {
            "buffer" : 0,
            "byteLength" : 26272,
            "byteOffset" : 504460
        },
        {
            "buffer" : 0,
            "byteLength" : 26272,
            "byteOffset" : 530732
        },
        {
            "buffer" : 0,
            "byteLength" : 25872,
            "byteOffset" : 557004
        },
        {
            "buffer" : 0,
            "byteLength" : 67747,
            "byteOffset" : 582876
        },
        {
            "buffer" : 0,
            "byteLength" : 20804,
            "byteOffset" : 650624
        },
        {
            "buffer" : 0,
            "byteLength" : 15828,
            "byteOffset" : 671428
        },
        {
            "buffer" : 0,
            "byteLength" : 15828,
            "byteOffset" : 687256
        },
        {
            "buffer" : 0,
            "byteLength" : 10552,
            "byteOffset" : 703084
        },
        {
            "buffer" : 0,
            "byteLength" : 10552,
            "byteOffset" : 713636
        },
        {
            "buffer" : 0,
            "byteLength" : 11136,
            "byteOffset" : 724188
        }
    ],
    "buffers" : [
        {
            "byteLength" : 735324,
            "uri" : "data:application/octet-stream;base64,"
        }
    ]
}
