{
  "accessors": [
    {
      "bufferView": 2,
      "componentType": 5126,
      "count": 65532,
      "max": [
        6.8256969451904297,
        6.8265352249145508,
        2.6021630764007568
      ],
      "min": [
        -6.8257026672363281,
        -6.8265361785888672,
        -2.7409272193908691
      ],
      "type": "VEC3"
    },
    {
      "bufferView": 2,
      "byteOffset": 786384,
      "componentType": 5126,
      "count": 65532,
      "max": [
        0.99999994039535522,
        0.99999940395355225,
        1
      ],
      "min": [
        -0.99999994039535522,
        -0.99999940395355225,
        -1
      ],
      "type": "VEC3"
    },
    {
      "bufferView": 3,
      "componentType": 5126,
      "count": 65532,
      "max": [
        0.99999630451202393,
        0.99999403953552246,
        1,
        1
      ],
      "min": [
        -1,
        -0.99999439716339111,
        -1,
        -1
      ],
      "type": "VEC4"
    },
    {
      "bufferView": 0,
      "componentType": 5125,
      "count": 263229,
      "max": [
        65531
      ],
      "min": [
        0
      ],
      "type": "SCALAR"
    },
    {
      "bufferView": 2,
      "byteOffset": 1572768,
      "componentType": 5126,
      "count": 55445,
      "max": [
        6.8256969451904297,
        6.8260087966918945,
        2.7409272193908691
      ],
      "min": [
        -6.8257026672363281,
        -6.8260054588317871,
        0.026186294853687286
      ],
      "type": "VEC3"
    },
    {
      "bufferView": 2,
      "byteOffset": 2238108,
      "componentType": 5126,
      "count": 55445,
      "max": [
        1,
        0.99999940395355225,
        1
      ],
      "min": [
        -1,
        -0.99999654293060303,
        -1
      ],
      "type": "VEC3"
    },
    {
      "bufferView": 3,
      "byteOffset": 1048512,
      "componentType": 5126,
      "count": 55445,
      "max": [
        1,
        0.99999403953552246,
        0.70337563753128052,
        1
      ],
      "min": [
        -1,
        -0.99999439716339111,
        -0.99746668338775635,
        -1
      ],
      "type": "VEC4"
    },
    {
      "bufferView": 0,
      "byteOffset": 1052916,
      "componentType": 5125,
      "count": 217971,
      "max": [
        55444
      ],
      "min": [
        0
      ],
      "type": "SCALAR"
    },
    {
      "bufferView": 2,
      "byteOffset": 2903448,
      "componentType": 5126,
      "count": 61200,
      "max": [
        6.8830356597900391,
        6.8838796615600586,
        2.4854116439819336
      ],
      "min": [
        -6.8830404281616211,
        -6.883880615234375,
        -2.4854116439819336
      ],
      "type": "VEC3"
    },
    {
      "bufferView": 2,
      "byteOffset": 3637848,
      "componentType": 5126,
      "count": 61200,
      "max": [
        0.99998176097869873,
        0.99998694658279419,
        1
      ],
      "min": [
        -0.99998223781585693,
        -0.99998641014099121,
        -1
      ],
      "type": "VEC3"
    },
    {
      "bufferView": 3,
      "byteOffset": 1935632,
      "componentType": 5126,
      "count": 61200,
      "max": [
        0.99999988079071045,
        0.99999415874481201,
        0.9999890923500061,
        1
      ],
      "min": [
        -0.99999994039535522,
        -0.99999392032623291,
        -0.99998915195465088,
        -1
      ],
      "type": "VEC4"
    },
    {
      "bufferView": 1,
      "componentType": 5126,
      "count": 61200,
      "max": [
        1,
        0.99999994039535522
      ],
      "min": [
        0,
        0
      ],
      "type": "VEC2"
    },
    {
      "bufferView": 0,
      "byteOffset": 1924800,
      "componentType": 5125,
      "count": 232800,
      "max": [
        61199
      ],
      "min": [
        0
      ],
      "type": "SCALAR"
    }
  ],
  "asset": {
    "extras": {
      "author": "kalvsxjiro (https://sketchfab.com/kalvsxjiro)",
      "license": "CC-BY-4.0 (http://creativecommons.org/licenses/by/4.0/)",
      "source": "https://sketchfab.com/models/925e6fa4b9ae449aa4bec16c6a67944d",
      "title": "Tire tread"
    },
    "generator": "Sketchfab-3.20.7",
    "version": "2.0"
  },
  "bufferViews": [
    {
      "buffer": 0,
      "byteLength": 2856000,
      "byteOffset": 0,
      "name": "floatBufferViews",
      "target": 34963
    },
    {
      "buffer": 0,
      "byteLength": 489600,
      "byteOffset": 2856000,
      "byteStride": 8,
      "name": "floatBufferViews",
      "target": 34962
    },
    {
      "buffer": 0,
      "byteLength": 4372248,
      "byteOffset": 3345600,
      "byteStride": 12,
      "name": "floatBufferViews",
      "target": 34962
    },
    {
      "buffer": 0,
      "byteLength": 2914832,
      "byteOffset": 7717848,
      "byteStride": 16,
      "name": "floatBufferViews",
      "target": 34962
    }
  ],
  "buffers": [
    {
      "byteLength": 10632680,
      "uri": "scene.bin"
    }
  ],
  "extensionsRequired": [
    "KHR_materials_pbrSpecularGlossiness"
  ],
  "extensionsUsed": [
    "KHR_materials_pbrSpecularGlossiness"
  ],
  "images": [
    {
      "uri": "textures/RUBBER_DUST_diffuse.jpg"
    }
  ],
  "materials": [
    {
      "doubleSided": true,
      "emissiveFactor": [
        0,
        0,
        0
      ],
      "extensions": {
        "KHR_materials_pbrSpecularGlossiness": {
          "diffuseFactor": [
            0.122,
            0.122,
            0.122,
            1
          ],
          "glossinessFactor": 0,
          "specularFactor": [
            0,
            0,
            0
          ]
        }
      },
      "name": "RUBBER_TIRE"
    },
    {
      "doubleSided": true,
      "emissiveFactor": [
        0,
        0,
        0
      ],
      "extensions": {
        "KHR_materials_pbrSpecularGlossiness": {
          "diffuseFactor": [
            1,
            1,
            1,
            1
          ],
          "diffuseTexture": {
            "index": 0,
            "texCoord": 0
          },
          "glossinessFactor": 0.40000000000000002,
          "specularFactor": [
            0,
            0,
            0
          ]
        }
      },
      "name": "RUBBER_DUST"
    }
  ],
  "meshes": [
    {
      "name": "polySurface9_RUBBER_TIRE_0",
      "primitives": [
        {
          "attributes": {
            "NORMAL": 1,
            "POSITION": 0,
            "TANGENT": 2
          },
          "indices": 3,
          "material": 0,
          "mode": 4
        }
      ]
    },
    {
      "name": "polySurface9_RUBBER_TIRE_0",
      "primitives": [
        {
          "attributes": {
            "NORMAL": 5,
            "POSITION": 4,
            "TANGENT": 6
          },
          "indices": 7,
          "material": 0,
          "mode": 4
        }
      ]
    },
    {
      "name": "polySurface9_RUBBER_DUST_0",
      "primitives": [
        {
          "attributes": {
            "NORMAL": 9,
            "POSITION": 8,
            "TANGENT": 10,
            "TEXCOORD_0": 11
          },
          "indices": 12,
          "material": 1,
          "mode": 4
        }
      ]
    }
  ],
  "nodes": [
    {
      "children": [
        1
      ],
      "name": "RootNode (gltf orientation matrix)",
      "rotation": [
        -0.70710678118654746,
        -0,
        -0,
        0.70710678118654757
      ]
    },
    {
      "children": [
        2
      ],
      "name": "RootNode (model correction matrix)"
    },
    {
      "children": [
        3
      ],
      "matrix": [
        1,
        0,
        0,
        0,
        0,
        0,
        1,
        0,
        0,
        -1,
        0,
        0,
        0,
        0,
        0,
        1
      ],
      "name": "d5348dc65ca24e928f8895ca0f2c7f6c.fbx"
    },
    {
      "children": [
        4
      ],
      "name": "RootNode"
    },
    {
      "children": [
        5,
        6,
        7
      ],
      "name": "polySurface9"
    },
    {
      "mesh": 0,
      "name": "polySurface9_RUBBER_TIRE_0"
    },
    {
      "mesh": 1,
      "name": "polySurface9_RUBBER_TIRE_0"
    },
    {
      "mesh": 2,
      "name": "polySurface9_RUBBER_DUST_0"
    }
  ],
  "samplers": [
    {
      "magFilter": 9729,
      "minFilter": 9987,
      "wrapS": 10497,
      "wrapT": 10497
    }
  ],
  "scene": 0,
  "scenes": [
    {
      "name": "OSG_Scene",
      "nodes": [
        0
      ]
    }
  ],
  "textures": [
    {
      "sampler": 0,
      "source": 0
    }
  ]
}

