{
  "asset": {
    "version": "2.0",
    "generator": "GLTFExporter"
  },
  "scenes": [
    {
      "name": "Scene",
      "nodes": [
        6
      ]
    }
  ],
  "scene": 0,
  "nodes": [
    {
      "name": "Circle.002_0",
      "mesh": 0
    },
    {
      "name": "Circle.002_1",
      "mesh": 1
    },
    {
      "name": "Circle.002_2",
      "mesh": 2
    },
    {
      "name": "Circle.002_3",
      "mesh": 3
    },
    {
      "name": "Circle.002_4",
      "mesh": 4
    },
    {
      "matrix": [
        100,
        0,
        0,
        0,
        0,
        100,
        0,
        0,
        0,
        0,
        100,
        0,
        0,
        0,
        0,
        1
      ],
      "name": "FZ_32_235_H_100x",
      "extras": {
        "name": "FZ 32_235_H_100x"
      },
      "children": [
        0,
        1,
        2,
        3,
        4
      ]
    },
    {
      "name": "FZ 32_235_H_100x.glb",
      "children": [
        5
      ]
    }
  ],
  "bufferViews": [
    {
      "buffer": 0,
      "byteOffset": 0,
      "byteLength": 16356,
      "target": 34962,
      "byteStride": 12
    },
    {
      "buffer": 0,
      "byteOffset": 16356,
      "byteLength": 16356,
      "target": 34962,
      "byteStride": 12
    },
    {
      "buffer": 0,
      "byteOffset": 32712,
      "byteLength": 10904,
      "target": 34962,
      "byteStride": 8
    },
    {
      "buffer": 0,
      "byteOffset": 43616,
      "byteLength": 10904,
      "target": 34962,
      "byteStride": 8
    },
    {
      "buffer": 0,
      "byteOffset": 54520,
      "byteLength": 10692,
      "target": 34963
    },
    {
      "buffer": 0,
      "byteOffset": 65212,
      "byteLength": 46944,
      "target": 34962,
      "byteStride": 12
    },
    {
      "buffer": 0,
      "byteOffset": 112156,
      "byteLength": 46944,
      "target": 34962,
      "byteStride": 12
    },
    {
      "buffer": 0,
      "byteOffset": 159100,
      "byteLength": 31296,
      "target": 34962,
      "byteStride": 8
    },
    {
      "buffer": 0,
      "byteOffset": 190396,
      "byteLength": 31296,
      "target": 34962,
      "byteStride": 8
    },
    {
      "buffer": 0,
      "byteOffset": 221692,
      "byteLength": 45204,
      "target": 34963
    },
    {
      "buffer": 0,
      "byteOffset": 266896,
      "byteLength": 384,
      "target": 34962,
      "byteStride": 12
    },
    {
      "buffer": 0,
      "byteOffset": 267280,
      "byteLength": 384,
      "target": 34962,
      "byteStride": 12
    },
    {
      "buffer": 0,
      "byteOffset": 267664,
      "byteLength": 256,
      "target": 34962,
      "byteStride": 8
    },
    {
      "buffer": 0,
      "byteOffset": 267920,
      "byteLength": 256,
      "target": 34962,
      "byteStride": 8
    },
    {
      "buffer": 0,
      "byteOffset": 268176,
      "byteLength": 180,
      "target": 34963
    },
    {
      "buffer": 0,
      "byteOffset": 268356,
      "byteLength": 39408,
      "target": 34962,
      "byteStride": 12
    },
    {
      "buffer": 0,
      "byteOffset": 307764,
      "byteLength": 39408,
      "target": 34962,
      "byteStride": 12
    },
    {
      "buffer": 0,
      "byteOffset": 347172,
      "byteLength": 26272,
      "target": 34962,
      "byteStride": 8
    },
    {
      "buffer": 0,
      "byteOffset": 373444,
      "byteLength": 26272,
      "target": 34962,
      "byteStride": 8
    },
    {
      "buffer": 0,
      "byteOffset": 399716,
      "byteLength": 25872,
      "target": 34963
    },
    {
      "buffer": 0,
      "byteOffset": 425588,
      "byteLength": 15828,
      "target": 34962,
      "byteStride": 12
    },
    {
      "buffer": 0,
      "byteOffset": 441416,
      "byteLength": 15828,
      "target": 34962,
      "byteStride": 12
    },
    {
      "buffer": 0,
      "byteOffset": 457244,
      "byteLength": 10552,
      "target": 34962,
      "byteStride": 8
    },
    {
      "buffer": 0,
      "byteOffset": 467796,
      "byteLength": 10552,
      "target": 34962,
      "byteStride": 8
    },
    {
      "buffer": 0,
      "byteOffset": 478348,
      "byteLength": 11136,
      "target": 34963
    }
  ],
  "buffers": [
    {
      "byteLength": 489484,
      "uri": "data:application/octet-stream;base64,"
    }
  ],
  "accessors": [
    {
      "bufferView": 0,
      "componentType": 5126,
      "count": 1363,
      "max": [
        0.02048761583864689,
        0.02048768661916256,
        0.003851476591080427
      ],
      "min": [
        -0.02048761583864689,
        -0.02048768661916256,
        -0.07515403628349304
      ],
      "type": "VEC3"
    },
    {
      "bufferView": 1,
      "componentType": 5126,
      "count": 1363,
      "max": [
        0.999969482421875,
        0.9838862419128418,
        1
      ],
      "min": [
        -0.999969482421875,
        -0.965239405632019,
        -1
      ],
      "type": "VEC3"
    },
    {
      "bufferView": 2,
      "componentType": 5126,
      "count": 1363,
      "max": [
        0,
        1
      ],
      "min": [
        0,
        1
      ],
      "type": "VEC2"
    },
    {
      "bufferView": 3,
      "componentType": 5126,
      "count": 1363,
      "max": [
        0.9777863621711731,
        1
      ],
      "min": [
        0,
        0.023528337478637695
      ],
      "type": "VEC2"
    },
    {
      "bufferView": 4,
      "componentType": 5123,
      "count": 5346,
      "max": [
        1362
      ],
      "min": [
        0
      ],
      "type": "SCALAR"
    },
    {
      "bufferView": 5,
      "componentType": 5126,
      "count": 3912,
      "max": [
        0.025925885885953903,
        0.027498675510287285,
        0.012139542028307915
      ],
      "min": [
        -0.023106638342142105,
        -0.027498675510287285,
        0.003152347169816494
      ],
      "type": "VEC3"
    },
    {
      "bufferView": 6,
      "componentType": 5126,
      "count": 3912,
      "max": [
        1,
        1,
        1
      ],
      "min": [
        -1,
        -1,
        -1
      ],
      "type": "VEC3"
    },
    {
      "bufferView": 7,
      "componentType": 5126,
      "count": 3912,
      "max": [
        0,
        1
      ],
      "min": [
        0,
        1
      ],
      "type": "VEC2"
    },
    {
      "bufferView": 8,
      "componentType": 5126,
      "count": 3912,
      "max": [
        0,
        1
      ],
      "min": [
        0,
        1
      ],
      "type": "VEC2"
    },
    {
      "bufferView": 9,
      "componentType": 5123,
      "count": 22602,
      "max": [
        3911
      ],
      "min": [
        0
      ],
      "type": "SCALAR"
    },
    {
      "bufferView": 10,
      "componentType": 5126,
      "count": 32,
      "max": [
        0.017963621765375137,
        0.01796368509531021,
        0.0106874480843544
      ],
      "min": [
        -0.017963621765375137,
        -0.01796368509531021,
        0.0106874480843544
      ],
      "type": "VEC3"
    },
    {
      "bufferView": 11,
      "componentType": 5126,
      "count": 32,
      "max": [
        0,
        0,
        1
      ],
      "min": [
        0,
        0,
        0.999969482421875
      ],
      "type": "VEC3"
    },
    {
      "bufferView": 12,
      "componentType": 5126,
      "count": 32,
      "max": [
        0.9876641035079956,
        0.9908543825149536
      ],
      "min": [
        0.00612478144466877,
        0.009310901165008545
      ],
      "type": "VEC2"
    },
    {
      "bufferView": 13,
      "componentType": 5126,
      "count": 32,
      "max": [
        0,
        1
      ],
      "min": [
        0,
        1
      ],
      "type": "VEC2"
    },
    {
      "bufferView": 14,
      "componentType": 5123,
      "count": 90,
      "max": [
        31
      ],
      "min": [
        0
      ],
      "type": "SCALAR"
    },
    {
      "bufferView": 15,
      "componentType": 5126,
      "count": 3284,
      "max": [
        0.012185006402432919,
        0.04633915051817894,
        0.0072731515392661095
      ],
      "min": [
        -0.01273056399077177,
        -0.04456076771020889,
        -0.0708075687289238
      ],
      "type": "VEC3"
    },
    {
      "bufferView": 16,
      "componentType": 5126,
      "count": 3284,
      "max": [
        0.9967039823532104,
        0.9998779296875,
        0.999969482421875
      ],
      "min": [
        -0.9965208768844604,
        -0.999969482421875,
        -0.999969482421875
      ],
      "type": "VEC3"
    },
    {
      "bufferView": 17,
      "componentType": 5126,
      "count": 3284,
      "max": [
        0.6420252919197083,
        1
      ],
      "min": [
        0,
        0.00016683340072631836
      ],
      "type": "VEC2"
    },
    {
      "bufferView": 18,
      "componentType": 5126,
      "count": 3284,
      "max": [
        0.8534461259841919,
        0.9998731017112732
      ],
      "min": [
        0.0012269672006368637,
        0.00013375282287597656
      ],
      "type": "VEC2"
    },
    {
      "bufferView": 19,
      "componentType": 5123,
      "count": 12936,
      "max": [
        3283
      ],
      "min": [
        0
      ],
      "type": "SCALAR"
    },
    {
      "bufferView": 20,
      "componentType": 5126,
      "count": 1319,
      "max": [
        0.011821789667010307,
        0.04614643380045891,
        0.005297356750816107
      ],
      "min": [
        -0.012053007259964943,
        -0.04288171976804733,
        -0.07029522955417633
      ],
      "type": "VEC3"
    },
    {
      "bufferView": 21,
      "componentType": 5126,
      "count": 1319,
      "max": [
        0.999969482421875,
        0.9254127740859985,
        0.9939573407173157
      ],
      "min": [
        -0.999969482421875,
        -0.9749442934989929,
        -0.9924008846282959
      ],
      "type": "VEC3"
    },
    {
      "bufferView": 22,
      "componentType": 5126,
      "count": 1319,
      "max": [
        0,
        1
      ],
      "min": [
        0,
        1
      ],
      "type": "VEC2"
    },
    {
      "bufferView": 23,
      "componentType": 5126,
      "count": 1319,
      "max": [
        0.6076024770736694,
        0.9733889698982239
      ],
      "min": [
        0.00030427053570747375,
        0.05461305379867554
      ],
      "type": "VEC2"
    },
    {
      "bufferView": 24,
      "componentType": 5123,
      "count": 5568,
      "max": [
        1318
      ],
      "min": [
        0
      ],
      "type": "SCALAR"
    }
  ],
  "materials": [
    {
      "pbrMetallicRoughness": {
        "baseColorFactor": [
          0.6375970244407654,
          0.5209956765174866,
          0.38642948865890503,
          1
        ],
        "metallicFactor": 0.8500000238418579,
        "roughnessFactor": 0.10000000149011612
      },
      "doubleSided": true,
      "name": "Metal"
    },
    {
      "pbrMetallicRoughness": {
        "baseColorFactor": [
          0.018801162019371986,
          0.018801162019371986,
          0.018801162019371986,
          1
        ],
        "metallicFactor": 0.8500000238418579,
        "roughnessFactor": 0.5
      },
      "doubleSided": true,
      "name": "Dark Grey Metal Matt"
    },
    {
      "pbrMetallicRoughness": {
        "metallicFactor": 0.5,
        "roughnessFactor": 0.5,
        "baseColorTexture": {
          "index": 0
        }
      },
      "doubleSided": true,
      "name": "Material"
    },
    {
      "pbrMetallicRoughness": {
        "metallicFactor": 0,
        "roughnessFactor": 0.8500000238418579,
        "baseColorTexture": {
          "index": 1,
          "extensions": {
            "KHR_texture_transform": {
              "offset": [
                0,
                -99
              ],
              "scale": [
                100,
                100
              ]
            }
          }
        }
      },
      "normalTexture": {
        "index": 2,
        "scale": 0.5,
        "extensions": {
          "KHR_texture_transform": {
            "offset": [
              0,
              -99
            ],
            "scale": [
              100,
              100
            ]
          }
        }
      },
      "doubleSided": true,
      "name": "Texture"
    },
    {
      "pbrMetallicRoughness": {
        "baseColorFactor": [
          0.5070681571960449,
          0.13812130689620972,
          0.023332996293902397,
          1
        ],
        "metallicFactor": 0.5,
        "roughnessFactor": 0.15000000596046448
      },
      "doubleSided": true,
      "name": "Edge"
    }
  ],
  "meshes": [
    {
      "primitives": [
        {
          "mode": 4,
          "attributes": {
            "POSITION": 0,
            "NORMAL": 1,
            "TEXCOORD_0": 2,
            "TEXCOORD_1": 3
          },
          "indices": 4,
          "material": 0
        }
      ]
    },
    {
      "primitives": [
        {
          "mode": 4,
          "attributes": {
            "POSITION": 5,
            "NORMAL": 6,
            "TEXCOORD_0": 7,
            "TEXCOORD_1": 8
          },
          "indices": 9,
          "material": 1
        }
      ]
    },
    {
      "primitives": [
        {
          "mode": 4,
          "attributes": {
            "POSITION": 10,
            "NORMAL": 11,
            "TEXCOORD_0": 12,
            "TEXCOORD_1": 13
          },
          "indices": 14,
          "material": 2
        }
      ]
    },
    {
      "primitives": [
        {
          "mode": 4,
          "attributes": {
            "POSITION": 15,
            "NORMAL": 16,
            "TEXCOORD_0": 17,
            "TEXCOORD_1": 18
          },
          "indices": 19,
          "material": 3
        }
      ]
    },
    {
      "primitives": [
        {
          "mode": 4,
          "attributes": {
            "POSITION": 20,
            "NORMAL": 21,
            "TEXCOORD_0": 22,
            "TEXCOORD_1": 23
          },
          "indices": 24,
          "material": 4
        }
      ]
    }
  ],
  "textures": [
    {
      "sampler": 0,
      "source": 0
    },
    {
      "sampler": 1,
      "source": 1
    },
    {
      "sampler": 2,
      "source": 2
    }
  ],
  "samplers": [
    {
      "magFilter": 9729,
      "minFilter": 9987,
      "wrapS": 10497,
      "wrapT": 10497
    },
    {
      "magFilter": 9729,
      "minFilter": 9987,
      "wrapS": 10497,
      "wrapT": 10497
    },
    {
      "magFilter": 9729,
      "minFilter": 9987,
      "wrapS": 10497,
      "wrapT": 10497
    }
  ],
  "images": [
    {
      "mimeType": "image/jpeg",
      "uri": "data:image/jpeg;base64,"
    },
    {
      "mimeType": "image/jpeg",
      "uri": "data:image/jpeg;base64,"
    },
    {
      "mimeType": "image/jpeg",
      "uri": "data:image/jpeg;base64,"
    }
  ],
  "extensionsUsed": [
    "KHR_texture_transform"
  ]
}