{
	"asset":{
		"version":"2.0",
		"generator":"Created using the official Cinema 4D glTF Exporter 1.000x290161"
	},
	"scenes":[{
		"nodes":[0]
	}],
	"nodes":[{
		"name":"low_poly_nut",
		"translation":[0.0,
		0.0,
		0.0],
		"rotation":[0.7071067690849304,
		0.0,
		0.0,
		-0.7071067690849304],
		"scale":[1.0,
		1.0,
		1.0],
		"mesh":0
	}],
	"meshes":[{
		"primitives":[{
			"attributes":{
				"POSITION":1,
				"NORMAL":2,
				"TEXCOORD_0":3
			},
			"indices":0,
			"material":0
		}]
	}],
	"accessors":[{
		"bufferView":0,
		"type":"SCALAR",
		"componentType":5123,
		"count":648,
		"byteOffset":0,
		"min":[0],
		"max":[320]
	},
	{
		"bufferView":1,
		"type":"VEC3",
		"componentType":5126,
		"count":321,
		"byteOffset":0,
		"min":[-0.6155999898910523,
		-0.2883561849594116,
		-0.5331252217292786],
		"max":[0.6155999898910523,
		0.2883561849594116,
		0.5331252217292786]
	},
	{
		"bufferView":1,
		"type":"VEC3",
		"componentType":5126,
		"count":321,
		"byteOffset":12,
		"min":[-0.9999999403953552,
		-1.0,
		-0.9999989867210388],
		"max":[0.9999999403953552,
		1.0,
		0.9999989867210388]
	},
	{
		"bufferView":1,
		"type":"VEC2",
		"componentType":5126,
		"count":321,
		"byteOffset":24,
		"min":[0.009999999776482582,
		0.009999990463256836],
		"max":[0.9288540482521057,
		0.9900000095367432]
	}],
	"bufferViews":[{
		"buffer":0,
		"byteOffset":0,
		"byteLength":1296,
		"target":34963
	},
	{
		"buffer":0,
		"byteOffset":1296,
		"byteLength":10272,
		"target":34962,
		"byteStride":32
	}],
	"buffers":[{
		"uri":"data:application/octet-stream;base64,",
		"byteLength":11568
	}],
	"materials":[{
		"pbrMetallicRoughness":{
			"baseColorFactor":[1.0,
			1.0,
			1.0,
			1.0],
			"metallicFactor":1.0,
			"roughnessFactor":1.0
		},
		"emissiveFactor":[0.0,
		0.0,
		0.0],
		"alphaMode":"OPAQUE",
		"doubleSided":true,
		"name":""
	}]
}